<svg class="svg-icon" style="width: 1em;height: 1em;vertical-align: middle;fill: currentColor;overflow: hidden;" viewBox="0 0 1024 1024" version="1.1" xmlns="http://www.w3.org/2000/svg"><path d="M321.513065 859.208627a21.236002 21.236002 0 0 1-14.865201-5.09664l-219.580257-220.429697a22.510162 22.510162 0 0 1-4.671921-23.359602 21.236002 21.236002 0 0 1 19.537122-11.042721h603.527167a180.930734 180.930734 0 0 0 190.699295-197.070096c0-187.301535-183.054334-190.274575-190.699295-190.274574a21.660722 21.660722 0 0 1-21.236002-21.236002 21.236002 21.236002 0 0 1 21.236002-21.236002c2.54832 0 233.171298 2.54832 233.171298 232.746578A223.827457 223.827457 0 0 1 705.459975 641.75197h-552.136043l183.479054 183.479054a21.236002 21.236002 0 0 1 0 29.730403 21.660722 21.660722 0 0 1-15.289921 4.2472z"  /><path d="M101.932808 641.75197a22.934882 22.934882 0 0 1-14.865201-5.94608 21.660722 21.660722 0 0 1 0-30.155123L304.524264 386.91995a21.236002 21.236002 0 0 1 29.730402 0 21.236002 21.236002 0 0 1 0 30.155123l-217.031937 216.607217a22.934882 22.934882 0 0 1-15.289921 8.06968z"  /></svg>