<?xml version="1.0" standalone="no"?>
<!DOCTYPE svg PUBLIC "-//W3C//DTD SVG 20010904//EN"
 "http://www.w3.org/TR/2001/REC-SVG-20010904/DTD/svg10.dtd">
<svg version="1.0" xmlns="http://www.w3.org/2000/svg"
 width="256.000000pt" height="256.000000pt" viewBox="0 0 256.000000 256.000000"
 preserveAspectRatio="xMidYMid meet">

<g transform="translate(0.000000,256.000000) scale(0.100000,-0.100000)"
fill="#000000" stroke="none">
<path d="M1775 2366 c-17 -7 -43 -27 -57 -45 l-27 -31 -143 34 c-94 22 -149
30 -160 25 -10 -5 -27 -42 -40 -87 l-24 -77 -94 -7 c-143 -11 -225 -27 -328
-63 -136 -49 -230 -116 -264 -190 -5 -12 -25 -29 -43 -38 -18 -9 -48 -29 -66
-45 -19 -16 -45 -33 -59 -37 -28 -8 -67 -41 -81 -68 -13 -24 -39 -172 -39
-222 0 -45 10 -62 75 -129 25 -26 45 -51 45 -56 0 -4 12 -22 26 -39 29 -35 83
-49 121 -32 22 10 30 7 83 -42 32 -29 92 -70 134 -92 l75 -40 -29 -23 c-17
-13 -30 -28 -30 -33 0 -15 123 1 136 18 10 12 23 12 95 -4 114 -24 306 -23
417 2 45 10 85 15 89 11 3 -3 7 -72 7 -154 l1 -147 -37 -84 c-30 -69 -35 -89
-26 -105 6 -12 15 -24 21 -27 26 -17 -69 -225 -134 -291 l-45 -48 -83 0 c-96
0 -121 13 -173 88 -34 48 -98 195 -98 223 0 14 14 16 119 11 67 -3 121 -1 124
5 3 5 13 102 23 215 20 232 20 231 -49 243 -38 6 -328 18 -386 16 -13 -1 -81
30 -150 67 -153 83 -157 85 -183 71 -19 -10 -20 -17 -14 -187 9 -253 10 -258
49 -272 18 -6 62 -28 98 -50 61 -36 65 -41 61 -68 -6 -45 30 -117 70 -138 49
-26 110 -24 148 4 17 13 33 22 34 20 4 -6 26 -59 26 -63 0 -2 -19 -7 -42 -10
-48 -7 -111 -46 -141 -86 -23 -32 -33 -108 -18 -138 l12 -21 484 0 c469 0 485
1 495 19 13 25 13 72 -1 108 -21 56 -75 95 -166 120 l-31 8 16 35 c23 47 70
61 108 31 31 -25 92 -28 132 -7 84 44 127 162 87 240 -14 26 -13 33 15 99 17
40 30 79 30 88 0 31 -35 57 -125 95 -49 20 -98 46 -108 57 -10 12 -31 30 -47
42 l-28 21 75 38 c41 22 101 63 133 93 53 49 60 52 83 42 38 -17 92 -3 121 32
14 17 26 35 26 40 0 5 25 35 55 66 33 36 57 70 61 90 9 46 -23 233 -44 263
-10 14 -37 35 -60 46 -23 12 -57 35 -75 51 -18 16 -47 35 -65 42 -17 7 -34 22
-38 33 -8 27 -62 86 -108 120 l-39 28 44 0 c93 0 166 78 156 169 -11 101 -122
168 -212 127z m116 -85 c67 -67 1 -174 -87 -141 -38 15 -53 38 -54 83 0 81 83
115 141 58z m-322 -39 l103 -27 13 -38 c7 -22 24 -50 37 -64 l23 -25 -55 22
c-65 26 -211 59 -259 60 -36 0 -37 7 -11 75 12 30 17 30 149 -3z m-298 -224
c-7 -20 -19 -24 -97 -34 -126 -16 -206 -38 -303 -85 -53 -25 -88 -36 -94 -30
-13 13 -3 26 47 61 88 60 258 108 388 109 66 1 67 0 59 -21z m214 8 c138 -25
251 -73 303 -129 38 -40 9 -41 -70 -3 -95 45 -187 72 -293 87 -67 10 -85 15
-80 26 3 8 5 19 5 24 0 13 43 11 135 -5z m49 -135 c85 -23 203 -77 250 -115
27 -22 30 -35 62 -217 18 -107 34 -205 34 -218 0 -38 -90 -115 -195 -167 -136
-67 -242 -87 -430 -81 -171 6 -256 24 -372 82 -92 46 -193 136 -193 174 0 14
15 110 34 213 37 210 32 201 138 258 139 75 261 101 453 96 102 -3 162 -10
219 -25z m144 -935 c-17 -33 -18 -32 -18 9 0 32 2 36 15 25 11 -9 12 -17 3
-34z m170 -282 c27 -19 30 -79 6 -125 -19 -38 -76 -64 -105 -49 -71 39 -21
183 66 189 6 1 21 -6 33 -15z m-939 -80 c39 -50 16 -108 -46 -120 -65 -13
-109 74 -63 124 30 32 82 30 109 -4z m116 -292 c13 -9 75 -89 75 -96 0 -3 -56
-6 -125 -6 -134 0 -140 3 -114 52 20 38 133 73 164 50z m619 -6 c44 -18 76
-51 76 -76 0 -19 -7 -20 -126 -20 l-125 0 33 48 c18 26 38 50 43 54 16 12 63
9 99 -6z"/>
<path d="M1025 1636 c-89 -25 -100 -39 -71 -95 19 -36 44 -51 85 -51 47 0 79
16 96 49 18 36 19 61 3 96 -13 30 -11 30 -113 1z"/>
<path d="M1432 1628 c-29 -107 93 -185 169 -109 21 21 29 39 29 64 l0 34 -82
22 c-46 12 -88 21 -95 21 -7 0 -16 -15 -21 -32z"/>
<path d="M1032 1318 c-19 -19 -14 -35 21 -62 45 -34 80 -46 165 -56 96 -11
204 4 270 36 61 30 79 55 57 78 -13 13 -22 11 -76 -17 -51 -26 -74 -32 -151
-35 -106 -5 -182 9 -229 43 -38 29 -41 29 -57 13z"/>
</g>
</svg>
