<?xml version="1.0" encoding="UTF-8"?>
<svg version="1.1" xmlns="http://www.w3.org/2000/svg" width="16" height="16">
<path d="M0 0 C3.5625 0.5625 3.5625 0.5625 6.0625 2.6875 C7.92474678 6.25680632 7.69742971 7.75237883 6.5625 11.5625 C5.9025 12.8825 5.2425 14.2025 4.5625 15.5625 C1.5925 15.5625 -1.3775 15.5625 -4.4375 15.5625 C-7.47447183 10.33890845 -7.47447183 10.33890845 -7.3125 6.9375 C-5.67176696 2.48408176 -4.90200497 0.80214627 0 0 Z " fill="#E8D6E3" transform="translate(8.4375,0.4375)"/>
<path d="M0 0 C2.6331963 0.36319949 3.84431322 0.85505024 5.8125 2.6875 C7.44240048 5.86151672 6.91932092 7.60558429 6 11 C5.34 12.32 4.68 13.64 4 15 C1.03 15 -1.94 15 -5 15 C-5.33 13.68 -5.66 12.36 -6 11 C-5.34 11 -4.68 11 -4 11 C-4 11.99 -4 12.98 -4 14 C-3.4225 13.505 -2.845 13.01 -2.25 12.5 C0 11 0 11 4 11 C3.835 10.21625 3.67 9.4325 3.5 8.625 C3 6 3 6 3 4 C1.68 3.67 0.36 3.34 -1 3 C-0.67 2.01 -0.34 1.02 0 0 Z " fill="#CAC0D7" transform="translate(9,1)"/>
<path d="M0 0 C0.33 0.66 0.66 1.32 1 2 C1.99 1.67 2.98 1.34 4 1 C4.33 1.99 4.66 2.98 5 4 C4.34 4 3.68 4 3 4 C3 4.66 3 5.32 3 6 C3.66 6.33 4.32 6.66 5 7 C3.5963173 9.80736541 1.89216587 9.96708362 -1 11 C-1.99 11.33 -2.98 11.66 -4 12 C-4 11.01 -4 10.02 -4 9 C-4.66 9 -5.32 9 -6 9 C-6 8.01 -6 7.02 -6 6 C-5.34 6 -4.68 6 -4 6 C-3.67 5.34 -3.34 4.68 -3 4 C-3 5.32 -3 6.64 -3 8 C-1.35 8 0.3 8 2 8 C1.72382467 6.05925139 1.72382467 6.05925139 1 4 C0.01 3.34 -0.98 2.68 -2 2 C-1.34 2 -0.68 2 0 2 C0 1.34 0 0.68 0 0 Z " fill="#FDFDFE" transform="translate(9,3)"/>
<path d="M0 0 C2.71097227 0.37392721 3.82000467 0.81357627 5.75 2.8125 C7 5 7 5 7 9 C5.68 8.67 4.36 8.34 3 8 C3 6.68 3 5.36 3 4 C1.68 3.67 0.36 3.34 -1 3 C-0.67 2.01 -0.34 1.02 0 0 Z " fill="#CAADC6" transform="translate(9,1)"/>
<path d="M0 0 C1.98 0.495 1.98 0.495 4 1 C4 2.32 4 3.64 4 5 C2.35 5 0.7 5 -1 5 C-0.67 3.35 -0.34 1.7 0 0 Z " fill="#F7A4CF" transform="translate(7,6)"/>
<path d="M0 0 C2 3.75 2 3.75 2 6 C1.34 6 0.68 6 0 6 C-0.33 6.99 -0.66 7.98 -1 9 C-1.625 6.1875 -1.625 6.1875 -2 3 C-1.34 2.01 -0.68 1.02 0 0 Z " fill="#C5ACC2" transform="translate(3,3)"/>
</svg>
